<svg xmlns="http://www.w3.org/2000/svg" width="256" height="256" viewBox="0 0 256 256" version="1.1">
	<path d="M 50.052 54.250 C 41.671 72.804, 42.064 96.772, 51.109 118.771 C 52.250 121.545, 52.237 122.382, 51.028 124.271 C 46.930 130.673, 43.838 137.342, 43.183 141.188 L 42.449 145.500 32.804 147 C 27.499 147.825, 22.878 148.783, 22.535 149.128 C 22.191 149.474, 22.446 151.886, 23.101 154.488 L 24.293 159.219 29.396 158.549 C 32.203 158.180, 36.346 157.629, 38.603 157.324 C 42.294 156.824, 42.770 157.006, 43.339 159.134 C 44.523 163.557, 44.001 164.498, 38.749 167.407 C 35.862 169.006, 32.278 171.163, 30.784 172.201 L 28.068 174.087 30.234 178.544 C 31.424 180.995, 32.823 183, 33.341 183 C 33.860 183, 37.134 181.200, 40.617 179 C 44.101 176.800, 47.317 175, 47.763 175 C 48.210 175, 50.517 177.953, 52.890 181.563 C 67.239 203.387, 100.289 215.417, 138.500 212.725 C 154.315 211.611, 171.871 206.776, 182 200.745 C 190.005 195.979, 199.026 187.773, 203.142 181.514 C 205.497 177.931, 207.891 175.001, 208.462 175.003 C 209.033 175.005, 212.200 176.804, 215.500 179 C 218.800 181.196, 221.973 182.995, 222.551 182.997 C 223.129 182.999, 224.576 180.995, 225.766 178.544 L 227.932 174.087 225.216 172.201 C 223.722 171.163, 220.138 169.006, 217.251 167.407 C 213.081 165.098, 212.005 163.986, 212.016 162 C 212.045 157.052, 213.040 156.614, 221.435 157.863 C 225.641 158.488, 229.702 159, 230.460 159 C 231.944 159, 234.386 149.951, 233.188 148.890 C 232.810 148.555, 228.472 147.738, 223.548 147.075 C 218.624 146.411, 214.289 145.679, 213.913 145.446 C 213.538 145.214, 212.940 143.107, 212.584 140.762 C 212.010 136.983, 209.211 130.917, 204.991 124.309 C 203.747 122.359, 203.937 121.090, 206.718 112.809 C 211.362 98.979, 212.362 92.434, 211.698 80.203 C 211.106 69.310, 208.681 59.262, 204.799 51.621 C 202.837 47.759, 202.806 47.744, 197.962 48.318 C 184.856 49.870, 168.616 59.537, 152.161 75.580 L 141.823 85.661 127.661 85.580 L 113.500 85.500 103.500 75.487 C 98 69.980, 89.651 62.871, 84.946 59.690 C 76.001 53.641, 62.200 48.038, 56.187 48.013 C 53.088 48.001, 52.693 48.402, 50.052 54.250 M 88.823 120.750 C 85.501 124.330, 84.789 127.559, 86.447 131.527 C 88.154 135.613, 91.557 138, 95.675 138 C 102.649 138, 106 134.443, 106 127.042 C 106 118.845, 94.499 114.632, 88.823 120.750 M 152.823 120.750 C 149.501 124.330, 148.789 127.559, 150.447 131.527 C 152.154 135.613, 155.557 138, 159.675 138 C 166.649 138, 170 134.443, 170 127.042 C 170 118.845, 158.499 114.632, 152.823 120.750 M 118.642 149.770 C 118.380 150.194, 119.688 153.620, 121.550 157.384 C 124.700 163.755, 124.835 164.419, 123.503 166.995 C 116.959 179.649, 99.070 178.411, 94.297 164.973 C 92.869 160.953, 92.088 160, 90.220 160 C 88.098 160, 87.964 160.306, 88.576 163.750 C 91.512 180.257, 111.854 186.669, 124.157 174.965 L 127.952 171.355 131.133 174.637 C 134.773 178.393, 141.499 181.010, 147.428 180.978 C 156.077 180.931, 164.706 174.141, 166.850 165.694 C 168.026 161.060, 167.678 160, 164.980 160 C 163.589 160, 162.771 161.138, 161.939 164.226 C 158.839 175.740, 143.759 179.777, 135.787 171.227 C 130.704 165.776, 130.604 164.736, 134.429 157.141 C 136.341 153.345, 137.626 149.960, 137.286 149.619 C 136.386 148.719, 119.206 148.858, 118.642 149.770" stroke="none" fill="black" fill-rule="evenodd"/>
</svg>